HIERARCHY
ROOT Hips
{
	OFFSET 0.00000 0.00000 0.00000
	CHANNELS 6 Xposition Yposition Zposition Zrotation Yrotation Xrotation 
	JOINT LHipJoint
	{
		OFFSET 0 0 0
		CHANNELS 3 Zrotation Yrotation Xrotation
		JOINT LeftUpLeg
		{
			OFFSET 1.84395 -1.68683 0.74144
			CHANNELS 3 Zrotation Yrotation Xrotation
			JOINT LeftLeg
			{
				OFFSET 2.27037 -6.23779 0.00000
				CHANNELS 3 Zrotation Yrotation Xrotation
				JOINT LeftFoot
				{
					OFFSET 2.56918 -7.05877 0.00000
					CHANNELS 3 Zrotation Yrotation Xrotation
					JOINT LeftToeBase
					{
						OFFSET 0.22276 -0.61202 1.71784
						CHANNELS 3 Zrotation Yrotation Xrotation
						End Site
						{
							OFFSET 0.00000 -0.00000 0.91613
						}
					}
				}
			}
		}
	}
	JOINT RHipJoint
	{
		OFFSET 0 0 0
		CHANNELS 3 Zrotation Yrotation Xrotation
		JOINT RightUpLeg
		{
			OFFSET -1.76833 -1.68684 0.74144
			CHANNELS 3 Zrotation Yrotation Xrotation
			JOINT RightLeg
			{
				OFFSET -2.49360 -6.85110 0.00000
				CHANNELS 3 Zrotation Yrotation Xrotation
				JOINT RightFoot
				{
					OFFSET -2.55538 -7.02085 0.00000
					CHANNELS 3 Zrotation Yrotation Xrotation
					JOINT RightToeBase
					{
						OFFSET -0.21516 -0.59115 1.68050
						CHANNELS 3 Zrotation Yrotation Xrotation
						End Site
						{
							OFFSET -0.00000 -0.00000 0.89604
						}
					}
				}
			}
		}
	}
	JOINT LowerBack
	{
		OFFSET 0 0 0
		CHANNELS 3 Zrotation Yrotation Xrotation
		JOINT Spine
		{
			OFFSET 0.06382 1.72312 -0.19613
			CHANNELS 3 Zrotation Yrotation Xrotation
			JOINT Spine1
			{
				OFFSET -0.00055 1.73507 0.23859
				CHANNELS 3 Zrotation Yrotation Xrotation
				JOINT Neck
				{
					OFFSET 0 0 0
					CHANNELS 3 Zrotation Yrotation Xrotation
					JOINT Neck1
					{
						OFFSET 0.03638 1.65562 0.09633
						CHANNELS 3 Zrotation Yrotation Xrotation
						JOINT Head
						{
							OFFSET 0.06388 1.62807 -0.32386
							CHANNELS 3 Zrotation Yrotation Xrotation
							End Site
							{
								OFFSET 0.00995 1.67644 -0.12021
							}
						}
					}
				}
				JOINT LeftShoulder
				{
					OFFSET 0 0 0
					CHANNELS 3 Zrotation Yrotation Xrotation
					JOINT LeftArm
					{
						OFFSET 3.09648 1.42991 0.28122
						CHANNELS 3 Zrotation Yrotation Xrotation
						JOINT LeftForeArm
						{
							OFFSET 5.11878 -0.00000 -0.00000
							CHANNELS 3 Zrotation Yrotation Xrotation
							JOINT LeftHand
							{
								OFFSET 3.59971 -0.00000 0.00000
								CHANNELS 3 Zrotation Yrotation Xrotation
								JOINT LeftFingerBase
								{
									OFFSET 0 0 0
									CHANNELS 3 Zrotation Yrotation Xrotation
									JOINT LeftHandIndex1
									{
										OFFSET 0.62877 -0.00000 0.00000
										CHANNELS 3 Zrotation Yrotation Xrotation
										End Site
										{
											OFFSET 0.50693 -0.00000 0.00000
										}
									}
								}
								JOINT LThumb
								{
									OFFSET 0 0 0
									CHANNELS 3 Zrotation Yrotation Xrotation
									End Site
									{
										OFFSET 0.51467 -0.00000 0.51467
									}
								}
							}
						}
					}
				}
				JOINT RightShoulder
				{
					OFFSET 0 0 0
					CHANNELS 3 Zrotation Yrotation Xrotation
					JOINT RightArm
					{
						OFFSET -3.33565 1.14597 0.05047
						CHANNELS 3 Zrotation Yrotation Xrotation
						JOINT RightForeArm
						{
							OFFSET -5.49020 -0.00000 0.00000
							CHANNELS 3 Zrotation Yrotation Xrotation
							JOINT RightHand
							{
								OFFSET -3.20659 -0.00000 -0.00000
								CHANNELS 3 Zrotation Yrotation Xrotation
								JOINT RightFingerBase
								{
									OFFSET 0 0 0
									CHANNELS 3 Zrotation Yrotation Xrotation
									JOINT RightHandIndex1
									{
										OFFSET -0.69188 -0.00000 0.00000
										CHANNELS 3 Zrotation Yrotation Xrotation
										End Site
										{
											OFFSET -0.55781 -0.00000 0.00000
										}
									}
								}
								JOINT RThumb
								{
									OFFSET 0 0 0
									CHANNELS 3 Zrotation Yrotation Xrotation
									End Site
									{
										OFFSET -0.56633 -0.00000 0.56633
									}
								}
							}
						}
					}
				}
			}
		}
	}
}
MOTION
Frames: 16
Frame Time: .0083333
-0.0509 17.4136 8.308 0 0 0 0 0 0 -21 0 0 0 0 0 0 0 0 0 0 0 0 0 0 21 0 0 0 0 0 0 0 0 0 0 0 0 0 0 0 0 0 0 0 0 0 0 -16 0 0 21 0 0 11 0 0 0 -8 0 0 0 0 0 0 0 0 0 0 0 0 0 0 0 0 0 0 0 0 8 0 0 0 0 0 0 0 0 0 0 0 0 0 0 0 0 0
-0.0509 17.4136 8.3080 -10.0748 -0.7965 8.8267 0.0000 0.0000 0.0000 -14.5507 -38.4153 21.7196 0.0528 -1.4832 -4.0794 -4.3482 41.7690 -44.1708 0.6387 5.1132 14.2316 0.0000 0.0000 0.0000 26.7990 24.5913 4.8887 -0.0321 -1.1574 3.1820 0.6286 -18.9826 -20.8662 -0.0101 0.6496 -1.7850 5.4774 0.1552 0.0308 3.4722 0.7295 -8.4210 0.5642 0.1054 -8.8967 -11.2994 -13.5168 -2.9018 8.6385 -19.1784 16.7369 2.8682 -9.3932 7.5522 0.0000 0.0000 0.0000 -96.1269 11.4478 6.7508 12.0810 -19.9260 -2.1298 -0.0000 -0.0000 40.5484 8.1141 -15.1809 -2.1382 -7.1250 0.0000 -0.0000 -13.1218 14.9205 9.5589 0.0000 0.0000 0.0000 91.9408 -9.1667 -4.9822 -13.3032 21.7298 -2.5644 0.0000 0.0000 40.3552 -2.2466 -32.0340 1.1921 7.1250 -0.0000 -0.0000 33.3432 -58.7732 -12.0692
-0.0493 17.4127 8.3103 -10.0016 -0.8156 8.7953 0.0000 0.0000 0.0000 -14.7799 -38.5067 21.8577 0.0509 -1.4555 -4.0030 -4.2239 41.6854 -44.4778 0.6614 5.2013 14.4836 0.0000 0.0000 0.0000 26.7260 24.5553 4.9564 -0.0313 -1.1415 3.1382 0.6260 -18.9599 -20.8540 -0.0082 0.5861 -1.6106 5.4231 0.1548 0.1153 3.4489 0.7333 -8.4447 0.5700 0.1087 -8.9723 -11.2240 -13.5547 -2.8999 8.4911 -19.2161 16.8025 2.8065 -9.4166 7.5548 0.0000 0.0000 0.0000 -96.0923 11.5337 7.5031 12.0215 -19.8368 -2.1096 -0.0000 -0.0000 38.8099 9.3622 -14.9304 -2.4324 -7.1250 0.0000 -0.0000 -12.2955 15.0890 8.8809 0.0000 0.0000 0.0000 91.9542 -9.2474 -4.8779 -13.3445 21.7899 -2.5798 0.0000 0.0000 40.2792 -2.0075 -32.1054 1.0673 7.1250 -0.0000 -0.0000 33.6421 -58.7789 -12.1985
-0.0471 17.4129 8.3105 -9.9425 -0.8211 8.7964 0.0000 0.0000 0.0000 -14.8824 -38.5213 21.8753 0.0505 -1.4497 -3.9871 -4.1770 41.6390 -44.5607 0.6742 5.2505 14.6244 0.0000 0.0000 0.0000 26.6272 24.4720 4.9121 -0.0313 -1.1420 3.1397 0.6142 -18.8755 -20.8311 -0.0076 0.5629 -1.5467 5.3992 0.1572 0.1568 3.4299 0.7377 -8.4490 0.5630 0.1113 -9.0011 -11.2049 -13.5269 -2.6929 8.5257 -19.1882 16.6404 2.8381 -9.4099 7.4645 0.0000 -0.0000 0.0000 -96.0740 11.5541 8.2598 11.9601 -19.7448 -2.0888 -0.0000 -0.0000 37.1484 10.5277 -14.6616 -2.6931 -7.1250 0.0000 -0.0000 -11.5192 15.2782 8.2476 0.0000 -0.0000 0.0000 91.9516 -9.2448 -4.8524 -13.3616 21.8147 -2.5861 0.0000 0.0000 40.2932 -1.7932 -32.0255 0.9511 7.1250 -0.0000 -0.0000 33.7754 -58.6651 -12.1597
-0.0455 17.4136 8.3096 -9.8872 -0.8199 8.8288 0.0000 0.0000 0.0000 -14.9141 -38.5207 21.8081 0.0503 -1.4466 -3.9787 -4.1925 41.6537 -44.5319 0.6694 5.2323 14.5722 0.0000 0.0000 0.0000 26.5168 24.4047 4.8071 -0.0320 -1.1541 3.1730 0.6055 -18.8010 -20.7911 -0.0082 0.5853 -1.6084 5.3740 0.1539 0.1675 3.4141 0.7319 -8.4533 0.5607 0.1093 -9.0120 -11.2110 -13.4855 -2.5378 8.6316 -19.1442 16.4417 2.8938 -9.3906 7.3794 -0.0000 0.0000 0.0000 -96.0755 11.5510 8.9614 11.9027 -19.6585 -2.0694 -0.0000 -0.0000 35.5091 11.6993 -14.4375 -2.9555 -7.1250 0.0000 -0.0000 -10.7327 15.4207 7.6294 -0.0000 0.0000 0.0000 91.9297 -9.2140 -4.8204 -13.3539 21.8036 -2.5833 0.0000 0.0000 40.2971 -1.5916 -31.8700 0.8405 7.1250 -0.0000 -0.0000 33.8261 -58.4918 -12.0366
-0.0482 17.4175 8.3180 -9.7918 -0.7789 8.9817 0.0000 0.0000 0.0000 -14.9717 -38.6906 21.6963 0.0492 -1.4310 -3.9357 -4.2022 41.7194 -44.6361 0.6687 5.2296 14.5645 0.0000 0.0000 0.0000 26.3630 24.4617 4.7143 -0.0305 -1.1265 3.0970 0.6153 -18.8697 -20.8071 -0.0017 0.2625 -0.7212 5.2395 0.1818 -0.1397 3.3585 0.7352 -8.4814 0.5758 0.1209 -8.8595 -11.1189 -13.4858 -2.3287 8.7175 -19.1677 16.2446 2.9259 -9.4017 7.2808 -0.0000 0.0000 0.0000 -95.9440 11.5239 9.8104 11.7378 -19.4103 -2.0143 -0.0000 -0.0000 33.8084 13.2104 -14.4288 -3.3475 -7.1250 0.0000 -0.0000 -9.7093 15.3183 6.9006 -0.0000 0.0000 0.0000 91.9455 -9.1334 -4.8597 -13.2538 21.6579 -2.5462 0.0000 0.0000 39.9576 -1.0644 -31.9759 0.5637 7.1250 -0.0000 -0.0000 34.4334 -58.4626 -12.2624
-0.0547 17.4247 8.3361 -9.6444 -0.7032 9.2550 0.0000 0.0000 0.0000 -15.0509 -38.9970 21.5565 0.0489 -1.4267 -3.9238 -4.1571 41.7654 -44.9090 0.6938 5.3246 14.8368 0.0000 0.0000 0.0000 26.1591 24.6794 4.6580 -0.0268 -1.0571 2.9059 0.6452 -19.1108 -20.9190 -0.0037 -0.3928 1.0794 5.0061 0.2647 -0.7595 3.2443 0.7823 -8.5350 0.5810 0.1610 -8.5486 -10.9585 -13.5757 -2.1007 8.7392 -19.3219 16.1575 2.9118 -9.4754 7.2156 -0.0000 -0.0000 0.0000 -95.6542 11.5524 11.6522 11.4564 -18.9844 -1.9218 -0.0000 -0.0000 30.3759 16.2709 -14.5029 -4.1805 -7.1250 0.0000 -0.0000 -7.6315 14.9907 5.4471 -0.0000 -0.0000 0.0000 92.0086 -9.0195 -4.9558 -13.0778 21.4011 -2.4816 0.0000 0.0000 39.2203 -0.3176 -32.3418 0.1699 7.1250 -0.0000 -0.0000 35.4967 -58.5963 -12.8223
-0.0580 17.4287 8.3464 -9.5968 -0.6680 9.4100 0.0000 0.0000 0.0000 -15.0607 -39.1749 21.5154 0.0499 -1.4417 -3.9652 -4.1511 41.8285 -45.0667 0.7023 5.3567 14.9286 0.0000 0.0000 0.0000 26.0842 24.8161 4.6226 -0.0250 -1.0210 2.8065 0.6645 -19.2585 -20.9790 -0.0111 -0.6799 1.8685 4.9947 0.3380 -0.9200 3.1403 0.8708 -8.7046 0.4747 0.1982 -8.6375 -10.8524 -13.6626 -1.8602 8.6035 -19.4597 16.2585 2.8553 -9.5527 7.1972 0.0000 0.0000 0.0000 -95.4131 11.7600 12.0027 11.3719 -18.8560 -1.8944 -0.0000 -0.0000 30.3958 16.5725 -14.5265 -4.2689 -7.1250 0.0000 -0.0000 -7.4268 14.9396 5.3066 0.0000 0.0000 0.0000 92.1169 -9.2127 -5.0426 -13.0157 21.3102 -2.4590 0.0000 0.0000 38.7760 0.0636 -32.4777 -0.0342 7.1250 -0.0000 -0.0000 35.9924 -58.6217 -13.0551
-0.0574 17.4287 8.3489 -9.6107 -0.6910 9.4292 0.0000 0.0000 0.0000 -15.0888 -39.2257 21.5699 0.0504 -1.4486 -3.9842 -4.2183 41.9485 -45.0673 0.6834 5.2854 14.7244 0.0000 0.0000 0.0000 26.0770 24.7859 4.5781 -0.0252 -1.0242 2.8153 0.6614 -19.2183 -20.9362 -0.0098 -0.6379 1.7530 5.1472 0.3751 -0.6087 3.0592 0.9614 -8.9726 0.3021 0.2169 -9.1158 -10.7707 -13.6519 -1.4705 8.4070 -19.4590 16.3297 2.8135 -9.5757 7.1254 0.0000 -0.0000 0.0000 -95.2580 12.2265 12.1801 11.4003 -18.8993 -1.9036 -0.0000 -0.0000 30.4896 16.4558 -14.4301 -4.2098 -7.1250 0.0000 -0.0000 -7.5047 15.0490 5.3455 0.0000 -0.0000 0.0000 92.2387 -9.6858 -5.0859 -13.0587 21.3732 -2.4746 0.0000 0.0000 38.6865 0.1921 -32.4589 -0.1031 7.1250 -0.0000 -0.0000 36.0972 -58.5779 -13.0609
-0.0568 17.4283 8.3515 -9.5645 -0.7137 9.4326 0.0000 0.0000 0.0000 -15.2121 -39.2813 21.6278 0.0492 -1.4311 -3.9357 -4.1246 41.8803 -45.2773 0.7156 5.4059 15.0700 0.0000 0.0000 0.0000 26.0132 24.7681 4.5703 -0.0253 -1.0267 2.8223 0.6533 -19.1716 -20.9409 -0.0108 -0.6721 1.8469 5.1618 0.3751 -0.4469 3.0222 0.9801 -9.1103 0.2554 0.2175 -9.3648 -10.7063 -13.5644 -1.0697 8.3466 -19.3525 16.1892 2.8347 -9.5426 6.9880 0.0000 -0.0000 0.0000 -95.1904 12.4704 12.2646 11.4193 -18.9282 -1.9097 -0.0000 -0.0000 30.5119 16.3477 -14.3306 -4.1525 -7.1250 0.0000 -0.0000 -7.5767 15.1606 5.3795 0.0000 -0.0000 0.0000 92.2768 -9.9233 -5.0630 -13.0774 21.4005 -2.4815 0.0000 0.0000 38.6566 0.3917 -32.4778 -0.2103 7.1250 -0.0000 -0.0000 36.3061 -58.5488 -13.1239
-0.0566 17.4285 8.3535 -9.5065 -0.7146 9.4436 0.0000 0.0000 0.0000 -15.3039 -39.3149 21.6408 0.0483 -1.4184 -3.9009 -4.0417 41.8052 -45.4304 0.7461 5.5176 15.3908 0.0000 0.0000 0.0000 25.9411 24.7712 4.5635 -0.0251 -1.0234 2.8131 0.6532 -19.1685 -20.9368 -0.0110 -0.6758 1.8572 5.0924 0.3512 -0.4514 3.0336 0.9465 -9.1383 0.3091 0.2063 -9.3950 -10.6665 -13.4880 -0.9346 8.2631 -19.2441 16.1807 2.8279 -9.4990 6.9388 0.0000 -0.0000 0.0000 -95.2190 12.5379 12.3965 11.5143 -19.0723 -1.9407 -0.0000 -0.0000 30.5666 16.0525 -13.6652 -3.8888 -7.1250 0.0000 -0.0000 -7.7711 15.8685 5.4006 0.0000 -0.0000 0.0000 92.2537 -9.9407 -5.0556 -13.0716 21.3920 -2.4793 0.0000 0.0000 38.6987 0.6740 -32.3972 -0.3611 7.1250 -0.0000 -0.0000 36.4979 -58.4212 -13.0907
-0.0569 17.4289 8.3551 -9.5025 -0.7091 9.4382 0.0000 0.0000 0.0000 -15.2885 -39.2720 21.6228 0.0489 -1.4270 -3.9245 -4.1475 41.9094 -45.2522 0.7125 5.3943 15.0367 0.0000 0.0000 0.0000 25.9397 24.7385 4.5580 -0.0250 -1.0209 2.8062 0.6604 -19.1787 -20.8711 -0.0082 -0.5860 1.6103 5.0834 0.3319 -0.4377 3.0516 0.9236 -9.1598 0.3354 0.1958 -9.4284 -10.7346 -13.4735 -0.9199 8.1818 -19.2198 16.3141 2.8124 -9.4952 6.9759 0.0000 0.0000 0.0000 -95.2307 12.6360 12.7141 11.6961 -19.3473 -2.0005 -0.0000 -0.0000 30.6516 15.4910 -12.4834 -3.4284 -7.1250 0.0000 -0.0000 -8.1550 17.1224 5.4484 0.0000 0.0000 0.0000 92.2456 -9.9695 -5.0344 -13.0796 21.4037 -2.4823 0.0000 0.0000 38.7041 0.9447 -32.3934 -0.5061 7.1250 -0.0000 -0.0000 36.7519 -58.3583 -13.1414
-0.0573 17.4289 8.3568 -9.5199 -0.7053 9.4118 0.0000 0.0000 0.0000 -15.2650 -39.2153 21.6203 0.0488 -1.4254 -3.9201 -4.1623 41.8845 -45.1434 0.6971 5.3372 14.8727 0.0000 0.0000 0.0000 25.9741 24.6934 4.5725 -0.0253 -1.0267 2.8223 0.6629 -19.1743 -20.8337 -0.0068 -0.5325 1.4632 5.1290 0.3345 -0.4075 3.0449 0.9316 -9.1660 0.3024 0.1953 -9.4530 -10.7407 -13.4663 -0.8482 8.1648 -19.2130 16.3161 2.8144 -9.4960 6.9626 -0.0000 0.0000 0.0000 -95.1872 12.6500 12.9433 11.7613 -19.4457 -2.0221 -0.0000 -0.0000 30.6201 15.3508 -11.9306 -3.2481 -7.1250 0.0000 -0.0000 -8.2551 17.6976 5.4116 -0.0000 0.0000 0.0000 92.2627 -10.0091 -4.9380 -13.0941 21.4250 -2.4876 0.0000 0.0000 38.5846 1.0754 -32.4855 -0.5777 7.1250 -0.0000 -0.0000 36.9650 -58.4034 -13.2732
-0.0575 17.4293 8.3584 -9.4900 -0.6974 9.4115 0.0000 0.0000 0.0000 -15.3104 -39.2279 21.6277 0.0483 -1.4178 -3.8991 -4.1303 41.8332 -45.1556 0.7066 5.3727 14.9746 0.0000 0.0000 0.0000 25.9325 24.6631 4.5492 -0.0259 -1.0388 2.8555 0.6568 -19.1436 -20.8461 -0.0087 -0.6024 1.6555 5.1313 0.3453 -0.4000 3.0202 0.9461 -9.1840 0.2742 0.2005 -9.4767 -10.7186 -13.4785 -0.8537 8.1215 -19.2262 16.3501 2.7954 -9.5034 6.9694 0.0000 -0.0000 0.0000 -95.1397 12.6235 13.0121 11.7369 -19.4090 -2.0140 -0.0000 -0.0000 30.5529 15.5033 -11.9321 -3.2823 -7.1250 0.0000 -0.0000 -8.1489 17.6855 5.3427 0.0000 -0.0000 0.0000 92.2791 -10.0581 -4.8322 -13.0884 21.4166 -2.4855 0.0000 0.0000 38.4403 1.0802 -32.4487 -0.5796 7.1250 -0.0000 -0.0000 36.9339 -58.3727 -13.2319
-0.0573 17.4298 8.3601 -9.4654 -0.6904 9.4125 0.0000 0.0000 0.0000 -15.3705 -39.2751 21.6769 0.0486 -1.4220 -3.9108 -4.1422 41.8824 -45.2152 0.7109 5.3887 15.0206 0.0000 0.0000 0.0000 25.9031 24.6652 4.5461 -0.0263 -1.0464 2.8766 0.6544 -19.1426 -20.8720 -0.0112 -0.6836 1.8786 5.1192 0.3487 -0.3899 3.0123 0.9513 -9.2016 0.2723 0.2030 -9.5022 -10.6402 -13.5208 -1.0526 7.9182 -19.2557 16.5653 2.6990 -9.5165 7.0478 0.0000 -0.0000 0.0000 -95.0960 12.6419 13.0649 11.7558 -19.4374 -2.0203 -0.0000 -0.0000 30.5758 15.4876 -11.9693 -3.2889 -7.1250 0.0000 -0.0000 -8.1596 17.6484 5.3566 0.0000 -0.0000 0.0000 92.2944 -10.0820 -4.8370 -13.0672 21.3856 -2.4777 0.0000 0.0000 38.4397 1.1336 -32.3175 -0.6061 7.1250 -0.0000 -0.0000 36.8586 -58.2557 -13.0930
-0.0569 17.4302 8.3614 -9.4783 -0.6894 9.3839 0.0000 0.0000 0.0000 -15.3546 -39.2289 21.6800 0.0487 -1.4249 -3.9187 -4.0990 41.8383 -45.2848 0.7174 5.4126 15.0892 0.0000 0.0000 0.0000 25.9496 24.7240 4.5964 -0.0270 -1.0615 2.9180 0.6552 -19.1806 -20.9359 -0.0129 -0.7320 2.0116 5.1488 0.3572 -0.3490 3.0159 0.9678 -9.2011 0.2584 0.2086 -9.5255 -10.5699 -13.5596 -1.2297 7.7258 -19.2812 16.7601 2.6094 -9.5286 7.1174 -0.0000 0.0000 0.0000 -95.0517 12.6569 13.1249 11.7824 -19.4775 -2.0291 -0.0000 -0.0000 30.6276 15.4167 -12.0599 -3.2975 -7.1250 0.0000 -0.0000 -8.2084 17.5608 5.4052 -0.0000 0.0000 0.0000 92.3098 -10.0650 -4.9611 -13.0476 21.3569 -2.4706 0.0000 0.0000 38.5551 1.2810 -32.1863 -0.6824 7.1250 -0.0000 -0.0000 36.8730 -58.1180 -12.9731
